<svg xmlns="http://www.w3.org/2000/svg" width="16" height="20.988" viewBox="0 0 16 20.988">
  <path id="cursor-default-click" d="M9.661,7.6A.665.665,0,0,0,9,8.264V18.277a.664.664,0,0,0,.665.665.673.673,0,0,0,.42-.14l1.67-1.355L13.2,20.612a.666.666,0,0,0,.6.376.444.444,0,0,0,.289-.07L16.508,19.8a.649.649,0,0,0,.315-.883l-1.46-3.174,2.108-.394a.769.769,0,0,0,.376-.227.657.657,0,0,0-.1-.944L10.1,7.748l-.009.009A.661.661,0,0,0,9.661,7.6m3.708,1.146V7h4.372V8.745H13.368M12.345,4.163,14.82,1.688l1.233,1.233L13.578,5.4,12.345,4.163M9,0h1.749V4.372H9V0M3.688,12.82l2.475-2.475L7.4,11.578,4.921,14.053,3.688,12.82m0-9.9L4.921,1.688,7.4,4.163,6.163,5.4,3.688,2.921M6.372,8.745H2V7H6.372V8.745" transform="translate(-2)" fill="#151a26"/>
</svg>
