<svg xmlns="http://www.w3.org/2000/svg" width="16" height="15.245" viewBox="0 0 16 15.245">
  <path id="application-cog" d="M18,15.714v-.8l.883-.642c.08-.08.16-.16.08-.241l-.8-1.364c0-.08-.16-.08-.241-.08l-.963.4a3.252,3.252,0,0,0-.722-.4l-.16-1.043a.173.173,0,0,0-.16-.16h-1.6c-.16,0-.241.08-.241.16l-.16,1.043c-.241.16-.4.241-.642.4l-.963-.4a.3.3,0,0,0-.241.08l-.8,1.364a.3.3,0,0,0,.08.241l.883.642v.8l-.883.642c-.08.08-.16.16-.08.241l.8,1.364a.3.3,0,0,0,.241.08l.963-.4a1.747,1.747,0,0,0,.642.4l.16,1.043c.08.08.16.16.241.16h1.6a.173.173,0,0,0,.16-.16l.16-1.043c.241-.16.4-.241.642-.4l.963.321a.3.3,0,0,0,.241-.08l.8-1.364c.08-.08.08-.16,0-.16L18,15.714m-2.969.722a1.2,1.2,0,1,1,1.2-1.2,1.234,1.234,0,0,1-1.2,1.2m-5.384.4H4.6a1.6,1.6,0,0,1-1.6-1.6V5.6A1.6,1.6,0,0,1,4.6,4H15.838a1.6,1.6,0,0,1,1.6,1.6v4.557a5.641,5.641,0,0,0-1.6-.481V7.209H4.6v8.024H9.419A5.831,5.831,0,0,0,9.651,16.838Z" transform="translate(-3 -4)" fill="#151a26"/>
</svg>
