<svg xmlns="http://www.w3.org/2000/svg" width="15.158" height="16" viewBox="0 0 15.158 16">
  <path id="database-arrow-up" d="M16.632,11.421a5.041,5.041,0,0,0-4.312,2.434,13.681,13.681,0,0,1-1.583.093C7.015,13.947,4,12.44,4,10.579V8.053c0,1.861,3.015,3.368,6.737,3.368s6.737-1.507,6.737-3.368v2.526a1.879,1.879,0,0,1-.236.884,2.859,2.859,0,0,0-.606-.042M10.737,9.737c3.722,0,6.737-1.507,6.737-3.368S14.459,3,10.737,3,4,4.507,4,6.368s3.015,3.368,6.737,3.368m.926,5.861a8.437,8.437,0,0,1-.926.034C7.015,15.632,4,14.124,4,12.263v2.526c0,1.861,3.015,3.368,6.737,3.368a8.126,8.126,0,0,0,1.12-.051,4.817,4.817,0,0,1-.194-2.509m4.968-2.493-2.526,2.526h1.684V19h1.684V15.632h1.684Z" transform="translate(-4 -3)" fill="#151a26"/>
</svg>
