<svg xmlns="http://www.w3.org/2000/svg" width="16" height="18" viewBox="0 0 16 18">
  <path id="transmission-tower" d="M8.336,5.1l-1.8-.81L7.809,2h8.583l1.287,2.3-1.8.8-.73-1.3H9.065l-.73,1.3M18.813,7.4h-4.59l-.8-2.7H10.788l-.8,2.7H5.4l-1.3,2.3,1.814.8.74-1.3h10.9l.73,1.3L20.1,9.7,18.813,7.4M17.952,20h-2.1l-.243-.81-3.506-4.68L8.589,19.19,8.356,20h-2.1l2.928-9.9h2.1l-.365,1.215,1.186,1.575,1.175-1.575L12.926,10.1h2.1L17.952,20M11.5,13.7l-.912-1.215-1.2,4.032L11.5,13.7m3.324,2.808-1.2-4.032L12.713,13.7Z" transform="translate(-4.1 -2)" fill="#151a26"/>
</svg>
