<svg xmlns="http://www.w3.org/2000/svg" width="16" height="16" viewBox="0 0 16 16">
  <path id="nintendo-switch" d="M8.432,16.72H6.1A2.841,2.841,0,0,1,3.28,13.9V6.1A2.813,2.813,0,0,1,6.1,3.3H8.432V16.72M6.1,2A4.1,4.1,0,0,0,2,6.1V13.9A4.094,4.094,0,0,0,6.1,18H9.72V2H6.1M4.488,6.8A1.5,1.5,0,1,0,6,5.3,1.5,1.5,0,0,0,4.488,6.8m10,2.4a1.6,1.6,0,1,1-1.624,1.6,1.6,1.6,0,0,1,1.624-1.6M13.9,18A4.1,4.1,0,0,0,18,13.9V6.1A4.094,4.094,0,0,0,13.9,2H11.32V18Z" transform="translate(-2 -2)" fill="#151a26"/>
</svg>
